<?xml version="1.0" encoding="UTF-8"?>
<!DOCTYPE svg PUBLIC "-//W3C//DTD SVG 1.1//EN" "http://www.w3.org/Graphics/SVG/1.1/DTD/svg11.dtd">
<!-- Creator: CorelDRAW -->
<svg xmlns="http://www.w3.org/2000/svg" xml:space="preserve" width="1.09158in" height="0.712319in" version="1.1" style="shape-rendering:geometricPrecision; text-rendering:geometricPrecision; image-rendering:optimizeQuality; fill-rule:evenodd; clip-rule:evenodd"
viewBox="0 0 413.02 269.52"
 xmlns:xlink="http://www.w3.org/1999/xlink"
 xmlns:xodm="http://www.corel.com/coreldraw/odm/2003">
 <defs>
  <style type="text/css">
   <![CDATA[
    .fil0 {fill:#010101}
    .fil1 {fill:#020202}
    .fil2 {fill:#625B54}
   ]]>
  </style>
 </defs>
 <g id="Layer_x0020_1">
  <metadata id="CorelCorpID_0Corel-Layer"/>
  <path class="fil0" d="M196.07 133.89l1.23 -0.32c-6.75,-8.54 -13.87,-22.49 -19.85,-32.66 -6.48,-11.02 -12.56,-22.32 -19.3,-33.67 -7.67,-12.93 -32.79,-59.97 -38.49,-67.16l-119.21 -0.08 97.09 67.3c11.67,7.96 87.89,61.44 98.53,66.59z"/>
  <path class="fil0" d="M214.59 134.6l1.76 -0.06c7.25,-5.88 15.89,-10.56 23.87,-16.08l170.99 -118.43 -119.06 -0.03 -77.56 134.59z"/>
  <path class="fil1" d="M410.95 15.63l-0.22 -0.37c-5.91,1.84 -173.73,118.85 -189.57,130.03l117.34 -0.26c2.53,-2.73 70.82,-124.24 72.45,-129.4z"/>
  <path class="fil0" d="M71.54 145.02l118.15 0.07c-4.53,-5.61 -40.66,-28.4 -47.21,-33.13l-93.97 -64.93c-9.81,-6.56 -41.31,-29.19 -48.51,-32.64 2.99,8.6 13.14,24.67 17.91,32.94 7.3,12.65 51.11,90.08 53.63,97.68z"/>
  <path class="fil0" d="M145.21 269.41l120.89 0.11c-1.8,-6.75 -10.88,-20.72 -14.53,-27.03 -5.28,-9.14 -10.07,-16.64 -15.43,-26.23l-30.31 -53.87 -60.63 107.02z"/>
  <path class="fil0" d="M274.93 258.85c9.89,-15 19.16,-34 28.64,-50.49 5.11,-8.89 26.99,-45.5 28.6,-52.2l-117.42 -0c2.62,6.95 58.87,101.59 60.19,102.69z"/>
  <path class="fil0" d="M136.31 259.15c4.49,-3.51 25.27,-41.37 30.11,-50.49l29.81 -52.92 -117.59 0.52 57.67 102.89z"/>
  <path class="fil2" d="M216.35 134.54l-1.76 0.06 -1.79 2.34c4.9,-1.45 2.23,-0.92 3.55,-2.39z"/>
  <path class="fil2" d="M197.3 133.57l-1.23 0.32 2.75 3.02c-0.7,-7.34 0.56,-0.53 -1.53,-3.35z"/>
  <polygon class="fil2" points="410.95,15.63 413.02,13.15 410.72,15.26 "/>
 </g>
</svg>
